<svg viewBox="0 0 72 72" xmlns="http://www.w3.org/2000/svg"><g fill="none" stroke="#000"><path d="m19.1 33.3a17.65 17.65 0 0 1 35.3-.1v.1" stroke-linecap="round" stroke-linejoin="round" stroke-width="2.3562"/><g stroke-width="2"><path d="m17.3 34.3h39a1.7524 1.7524 0 0 1 1.7 1.7v.1a1.7524 1.7524 0 0 1 -1.7 1.7h-39a1.7524 1.7524 0 0 1 -1.7-1.7v-.1a1.6275 1.6275 0 0 1 1.7-1.7z" stroke-linejoin="round"/><path d="m35 38.4h3.5v2.4h-3.5z" stroke-linecap="square" stroke-miterlimit="10"/><path d="m17.4 41.9h37.7v3.5h-37.7z" stroke-linecap="square" stroke-linejoin="round"/><path d="m15 45.5h42.4v3.5h-42.4z" stroke-linecap="square" stroke-linejoin="round"/><path d="m35 15a2.3505 2.3505 0 1 1 4.7-.1" stroke-linecap="round" stroke-linejoin="round"/></g></g></svg>