<svg enable-background="new 0 0 32 32" viewBox="0 0 32 32" xmlns="http://www.w3.org/2000/svg"><path d="m26 28.36h-20v-.72h20zm-7-2h-6c-2.404 0-4.36-1.956-4.36-4.36v-8c0-.199.161-.36.36-.36h14c.199 0 .36.161.36.36v1.64h1.64c1.302 0 2.36 1.059 2.36 2.36v2c0 1.302-1.059 2.36-2.36 2.36h-1.654c-.184 2.237-2.063 4-4.346 4zm-9.64-12v7.64c0 2.007 1.633 3.64 3.64 3.64h6c2.007 0 3.64-1.633 3.64-3.64v-7.64zm14 7.28h1.64c.904 0 1.64-.735 1.64-1.64v-2c0-.904-.735-1.64-1.64-1.64h-1.64zm-3-9.64h-.72v-1.283c0-.525.124-1.051.358-1.52.375-.75.375-1.645 0-2.395-.234-.469-.358-.995-.358-1.52v-.282h.721v.283c0 .414.098.829.282 1.198.476.952.476 2.087 0 3.039-.185.369-.282.784-.282 1.198zm-8 0h-.72v-1.283c0-.525.124-1.05.359-1.52.375-.75.375-1.645 0-2.395-.235-.47-.359-.995-.359-1.52v-.282h.72v.283c0 .414.098.828.283 1.198.476.952.476 2.087 0 3.039-.185.37-.283.784-.283 1.198zm4-1h-.72v-1.283c0-.525.124-1.05.359-1.52.375-.75.375-1.645 0-2.395-.235-.47-.359-.995-.359-1.52v-.282h.72v.283c0 .414.098.828.283 1.198.477.952.477 2.087 0 3.039-.185.37-.283.784-.283 1.198z"/><path d="m0 0h32v32h-32z" fill="none"/></svg>